<svg width="24" height="25" viewBox="0 0 24 25" fill="none" xmlns="http://www.w3.org/2000/svg">
<path d="M10.4601 20.09C10.4621 20.4069 10.3699 20.7172 10.1953 20.9816C10.0207 21.2461 9.77153 21.4527 9.47935 21.5753C9.18717 21.698 8.86515 21.7311 8.55413 21.6705C8.2431 21.6099 7.95708 21.4583 7.73231 21.2349C7.50754 21.0116 7.35416 20.7265 7.29161 20.4158C7.22906 20.1052 7.26016 19.783 7.38096 19.49C7.50176 19.1971 7.70682 18.9466 7.97015 18.7704C8.23349 18.5941 8.54322 18.5 8.8601 18.5C9.28272 18.5 9.68818 18.6672 9.98795 18.9651C10.2877 19.263 10.4575 19.6674 10.4601 20.09ZM17.0501 18.5C16.7336 18.5 16.4243 18.5938 16.1612 18.7696C15.8981 18.9455 15.693 19.1953 15.5719 19.4877C15.4508 19.7801 15.4191 20.1018 15.4808 20.4121C15.5426 20.7225 15.695 21.0076 15.9187 21.2314C16.1425 21.4551 16.4276 21.6075 16.738 21.6693C17.0483 21.731 17.37 21.6993 17.6624 21.5782C17.9548 21.4571 18.2046 21.252 18.3804 20.9889C18.5563 20.7258 18.6501 20.4165 18.6501 20.1C18.6501 19.6757 18.4815 19.2687 18.1815 18.9686C17.8814 18.6686 17.4744 18.5 17.0501 18.5ZM20.4401 8.75L18.8201 15.24C18.6555 15.8867 18.28 16.4601 17.7529 16.8694C17.2259 17.2787 16.5774 17.5006 15.9101 17.5H10.0001C9.33145 17.5 8.68195 17.2767 8.15473 16.8654C7.62751 16.4542 7.2528 15.8786 7.0901 15.23L4.6901 5.5H3.1001C2.83488 5.5 2.58053 5.39464 2.39299 5.20711C2.20545 5.01957 2.1001 4.76522 2.1001 4.5C2.1001 4.23478 2.20545 3.98043 2.39299 3.79289C2.58053 3.60536 2.83488 3.5 3.1001 3.5H5.4701C5.69853 3.49334 5.92236 3.56513 6.1043 3.70341C6.28625 3.84169 6.41535 4.03812 6.4701 4.26L7.2501 7.5H19.3501H19.4401C19.5328 7.48523 19.6273 7.48523 19.7201 7.5C19.8498 7.53247 19.9716 7.59061 20.0784 7.67098C20.1853 7.75135 20.2749 7.85232 20.342 7.96792C20.4091 8.08353 20.4524 8.21141 20.4692 8.34403C20.4861 8.47664 20.4762 8.61128 20.4401 8.74V8.75ZM18.1901 9.5H7.7501L9.0601 14.74C9.11238 14.9519 9.23254 15.1409 9.40227 15.2781C9.57199 15.4153 9.78195 15.4933 10.0001 15.5H15.8801C16.1085 15.5067 16.3324 15.4349 16.5143 15.2966C16.6963 15.1583 16.8253 14.9619 16.8801 14.74L18.1901 9.5Z" fill="#222221"/>
</svg>
