<svg width="24" height="25" viewBox="0 0 24 25" fill="none" xmlns="http://www.w3.org/2000/svg">
<path d="M8 3.5H6C5.20435 3.5 4.44129 3.81607 3.87868 4.37868C3.31607 4.94129 3 5.70435 3 6.5V8.5C3 9.29565 3.31607 10.0587 3.87868 10.6213C4.44129 11.1839 5.20435 11.5 6 11.5H8C8.79565 11.5 9.55871 11.1839 10.1213 10.6213C10.6839 10.0587 11 9.29565 11 8.5V6.5C11 5.70435 10.6839 4.94129 10.1213 4.37868C9.55871 3.81607 8.79565 3.5 8 3.5ZM9 8.5C9 8.76522 8.89464 9.01957 8.70711 9.20711C8.51957 9.39464 8.26522 9.5 8 9.5H6C5.73478 9.5 5.48043 9.39464 5.29289 9.20711C5.10536 9.01957 5 8.76522 5 8.5V6.5C5 6.23478 5.10536 5.98043 5.29289 5.79289C5.48043 5.60536 5.73478 5.5 6 5.5H8C8.26522 5.5 8.51957 5.60536 8.70711 5.79289C8.89464 5.98043 9 6.23478 9 6.5V8.5ZM8 13.5H6C5.20435 13.5 4.44129 13.8161 3.87868 14.3787C3.31607 14.9413 3 15.7044 3 16.5V18.5C3 19.2956 3.31607 20.0587 3.87868 20.6213C4.44129 21.1839 5.20435 21.5 6 21.5H8C8.79565 21.5 9.55871 21.1839 10.1213 20.6213C10.6839 20.0587 11 19.2956 11 18.5V16.5C11 15.7044 10.6839 14.9413 10.1213 14.3787C9.55871 13.8161 8.79565 13.5 8 13.5ZM9 18.5C9 18.7652 8.89464 19.0196 8.70711 19.2071C8.51957 19.3946 8.26522 19.5 8 19.5H6C5.73478 19.5 5.48043 19.3946 5.29289 19.2071C5.10536 19.0196 5 18.7652 5 18.5V16.5C5 16.2348 5.10536 15.9804 5.29289 15.7929C5.48043 15.6054 5.73478 15.5 6 15.5H8C8.26522 15.5 8.51957 15.6054 8.70711 15.7929C8.89464 15.9804 9 16.2348 9 16.5V18.5ZM18 3.5H16C15.2044 3.5 14.4413 3.81607 13.8787 4.37868C13.3161 4.94129 13 5.70435 13 6.5V8.5C13 9.29565 13.3161 10.0587 13.8787 10.6213C14.4413 11.1839 15.2044 11.5 16 11.5H18C18.7956 11.5 19.5587 11.1839 20.1213 10.6213C20.6839 10.0587 21 9.29565 21 8.5V6.5C21 5.70435 20.6839 4.94129 20.1213 4.37868C19.5587 3.81607 18.7956 3.5 18 3.5ZM19 8.5C19 8.76522 18.8946 9.01957 18.7071 9.20711C18.5196 9.39464 18.2652 9.5 18 9.5H16C15.7348 9.5 15.4804 9.39464 15.2929 9.20711C15.1054 9.01957 15 8.76522 15 8.5V6.5C15 6.23478 15.1054 5.98043 15.2929 5.79289C15.4804 5.60536 15.7348 5.5 16 5.5H18C18.2652 5.5 18.5196 5.60536 18.7071 5.79289C18.8946 5.98043 19 6.23478 19 6.5V8.5ZM18 13.5H16C15.2044 13.5 14.4413 13.8161 13.8787 14.3787C13.3161 14.9413 13 15.7044 13 16.5V18.5C13 19.2956 13.3161 20.0587 13.8787 20.6213C14.4413 21.1839 15.2044 21.5 16 21.5H18C18.7956 21.5 19.5587 21.1839 20.1213 20.6213C20.6839 20.0587 21 19.2956 21 18.5V16.5C21 15.7044 20.6839 14.9413 20.1213 14.3787C19.5587 13.8161 18.7956 13.5 18 13.5ZM19 18.5C19 18.7652 18.8946 19.0196 18.7071 19.2071C18.5196 19.3946 18.2652 19.5 18 19.5H16C15.7348 19.5 15.4804 19.3946 15.2929 19.2071C15.1054 19.0196 15 18.7652 15 18.5V16.5C15 16.2348 15.1054 15.9804 15.2929 15.7929C15.4804 15.6054 15.7348 15.5 16 15.5H18C18.2652 15.5 18.5196 15.6054 18.7071 15.7929C18.8946 15.9804 19 16.2348 19 16.5V18.5Z" fill="#222221"/>
</svg>
