<svg width="24" height="25" viewBox="0 0 24 25" fill="none" xmlns="http://www.w3.org/2000/svg">
<path d="M11 8.5C11 8.23478 11.1054 7.98043 11.2929 7.79289C11.4804 7.60536 11.7348 7.5 12 7.5C12.1738 7.5038 12.3436 7.55283 12.4926 7.64227C12.6417 7.7317 12.7649 7.85845 12.85 8.01C12.9459 8.15559 12.998 8.32567 13 8.5C13 8.76522 12.8946 9.01957 12.7071 9.20711C12.5196 9.39464 12.2652 9.5 12 9.5C11.7348 9.5 11.4804 9.39464 11.2929 9.20711C11.1054 9.01957 11 8.76522 11 8.5ZM22 12.5C22 14.4778 21.4135 16.4112 20.3147 18.0557C19.2159 19.7002 17.6541 20.9819 15.8268 21.7388C13.9996 22.4957 11.9889 22.6937 10.0491 22.3079C8.10929 21.922 6.32746 20.9696 4.92894 19.5711C3.53041 18.1725 2.578 16.3907 2.19215 14.4509C1.8063 12.5111 2.00433 10.5004 2.76121 8.67317C3.51809 6.8459 4.79981 5.28412 6.4443 4.1853C8.08879 3.08649 10.0222 2.5 12 2.5C13.3132 2.5 14.6136 2.75866 15.8268 3.2612C17.0401 3.76375 18.1425 4.50035 19.0711 5.42893C19.9997 6.35752 20.7363 7.45991 21.2388 8.67317C21.7413 9.88642 22 11.1868 22 12.5ZM20 12.5C20 10.9177 19.5308 9.37103 18.6518 8.05544C17.7727 6.73984 16.5233 5.71447 15.0615 5.10896C13.5997 4.50346 11.9911 4.34504 10.4393 4.65372C8.88743 4.9624 7.46197 5.72433 6.34315 6.84315C5.22433 7.96197 4.4624 9.38743 4.15372 10.9393C3.84504 12.4911 4.00347 14.0997 4.60897 15.5615C5.21447 17.0233 6.23985 18.2727 7.55544 19.1518C8.87104 20.0308 10.4178 20.5 12 20.5C14.1217 20.5 16.1566 19.6571 17.6569 18.1569C19.1572 16.6566 20 14.6217 20 12.5ZM13 14.5V11.5C13 11.2348 12.8946 10.9804 12.7071 10.7929C12.5196 10.6054 12.2652 10.5 12 10.5H11C10.7348 10.5 10.4804 10.6054 10.2929 10.7929C10.1054 10.9804 10 11.2348 10 11.5C10 11.7652 10.1054 12.0196 10.2929 12.2071C10.4804 12.3946 10.7348 12.5 11 12.5V15.5C11 15.7652 11.1054 16.0196 11.2929 16.2071C11.4804 16.3946 11.7348 16.5 12 16.5H13C13.2652 16.5 13.5196 16.3946 13.7071 16.2071C13.8946 16.0196 14 15.7652 14 15.5C14 15.2348 13.8946 14.9804 13.7071 14.7929C13.5196 14.6054 13.2652 14.5 13 14.5Z" fill="#222221"/>
</svg>
