<svg width="71" height="71" viewBox="0 0 71 71" fill="none" xmlns="http://www.w3.org/2000/svg">
<rect width="70.2466" height="70.2466" rx="35.1233" fill="#FFFCF5"/>
<path d="M36.1412 24.1192L44.7078 32.6859C44.841 32.819 44.9466 32.977 45.0186 33.151C45.0907 33.3249 45.1277 33.5113 45.1277 33.6996C45.1277 33.8878 45.0907 34.0743 45.0186 34.2482C44.9466 34.4221 44.841 34.5802 44.7078 34.7133C44.5747 34.8464 44.4167 34.952 44.2427 35.0241C44.0688 35.0961 43.8824 35.1332 43.6941 35.1332C43.5059 35.1332 43.3194 35.0961 43.1455 35.0241C42.9716 34.952 42.8135 34.8464 42.6804 34.7133L36.5552 28.5739L36.5552 45.1218C36.5552 45.5005 36.4048 45.8636 36.1371 46.1314C35.8693 46.3991 35.5061 46.5496 35.1275 46.5496C34.7488 46.5496 34.3856 46.3991 34.1179 46.1314C33.8501 45.8636 33.6997 45.5005 33.6997 45.1218L33.6997 28.5739L27.5745 34.7133C27.3057 34.9822 26.941 35.1332 26.5608 35.1332C26.1806 35.1332 25.8159 34.9822 25.5471 34.7133C25.2782 34.4444 25.1272 34.0798 25.1272 33.6996C25.1272 33.3194 25.2782 32.9547 25.5471 32.6859L34.1138 24.1192C34.2465 23.9854 34.4044 23.8792 34.5784 23.8067C34.7524 23.7342 34.939 23.6969 35.1275 23.6969C35.316 23.6969 35.5026 23.7342 35.6766 23.8067C35.8505 23.8792 36.0085 23.9854 36.1412 24.1192Z" fill="#222221"/>
</svg>
