<svg width="58" height="48" viewBox="0 0 58 48" fill="none" xmlns="http://www.w3.org/2000/svg">
<path d="M14.7752 23.1095C21.3452 23.5475 26.3092 28.5115 26.3092 35.0815C26.3092 42.2355 21.1992 47.3455 13.8992 47.3455C5.57718 47.3455 0.467179 40.7755 0.467179 30.2635C0.467179 19.3135 6.30718 8.07152 16.0892 0.0415154L22.9512 6.17351C17.8412 12.0135 15.5052 16.6855 14.7752 23.1095ZM46.0192 23.1095C52.5892 23.5475 57.4072 28.5115 57.4072 35.0815C57.4072 42.2355 52.2972 47.3455 45.1432 47.3455C36.8212 47.3455 31.7112 40.7755 31.7112 30.2635C31.7112 19.3135 37.5512 8.07152 47.3332 0.0415154L54.1952 6.17351C49.0852 12.0135 46.7492 16.6855 46.0192 23.1095Z" fill="#FB4A36"/>
</svg>
