<svg width="44" height="45" viewBox="0 0 44 45" fill="none" xmlns="http://www.w3.org/2000/svg">
<rect y="0.119629" width="44" height="44" rx="9" fill="#FB4A36" fill-opacity="0.15"/>
<path d="M20.4601 29.7096C20.4621 30.0264 20.3699 30.3368 20.1953 30.6012C20.0207 30.8656 19.7715 31.0722 19.4794 31.1949C19.1872 31.3175 18.8652 31.3506 18.5541 31.29C18.2431 31.2294 17.9571 31.0778 17.7323 30.8545C17.5075 30.6311 17.3542 30.346 17.2916 30.0354C17.2291 29.7248 17.2602 29.4025 17.381 29.1096C17.5018 28.8167 17.7068 28.5662 17.9702 28.3899C18.2335 28.2137 18.5432 28.1196 18.8601 28.1196C19.2827 28.1196 19.6882 28.2868 19.9879 28.5847C20.2877 28.8826 20.4575 29.287 20.4601 29.7096ZM27.0501 28.1196C26.7336 28.1196 26.4243 28.2134 26.1612 28.3892C25.8981 28.565 25.693 28.8149 25.5719 29.1073C25.4508 29.3996 25.4191 29.7213 25.4808 30.0317C25.5426 30.3421 25.695 30.6272 25.9187 30.8509C26.1425 31.0747 26.4276 31.2271 26.738 31.2888C27.0483 31.3506 27.37 31.3189 27.6624 31.1978C27.9548 31.0767 28.2046 30.8716 28.3804 30.6085C28.5563 30.3454 28.6501 30.036 28.6501 29.7196C28.6501 29.2952 28.4815 28.8883 28.1815 28.5882C27.8814 28.2881 27.4744 28.1196 27.0501 28.1196ZM30.4401 18.3696L28.8201 24.8596C28.6555 25.5063 28.28 26.0796 27.7529 26.4889C27.2259 26.8983 26.5774 27.1202 25.9101 27.1196H20.0001C19.3314 27.1196 18.6819 26.8963 18.1547 26.485C17.6275 26.0737 17.2528 25.4981 17.0901 24.8496L14.6901 15.1196H13.1001C12.8349 15.1196 12.5805 15.0142 12.393 14.8267C12.2055 14.6391 12.1001 14.3848 12.1001 14.1196C12.1001 13.8543 12.2055 13.6 12.393 13.4125C12.5805 13.2249 12.8349 13.1196 13.1001 13.1196H15.4701C15.6985 13.1129 15.9224 13.1847 16.1043 13.323C16.2863 13.4613 16.4153 13.6577 16.4701 13.8796L17.2501 17.1196H29.3501H29.4401C29.5328 17.1048 29.6273 17.1048 29.7201 17.1196C29.8498 17.152 29.9716 17.2102 30.0784 17.2905C30.1853 17.3709 30.2749 17.4719 30.342 17.5875C30.4091 17.7031 30.4524 17.831 30.4692 17.9636C30.4861 18.0962 30.4762 18.2308 30.4401 18.3596V18.3696ZM28.1901 19.1196H17.7501L19.0601 24.3596C19.1124 24.5715 19.2325 24.7605 19.4023 24.8977C19.572 25.0349 19.7819 25.1128 20.0001 25.1196H25.8801C26.1085 25.1262 26.3324 25.0544 26.5143 24.9162C26.6963 24.7779 26.8253 24.5814 26.8801 24.3596L28.1901 19.1196Z" fill="#FB4A36"/>
</svg>
