<svg width="45" height="45" viewBox="0 0 45 45" fill="none" xmlns="http://www.w3.org/2000/svg">
<rect x="0.5" y="0.5" width="44" height="44" rx="10.5" fill="white" stroke="#E9E9E9"/>
<path d="M26.75 16.5683C26.75 18.1919 24.4656 21.0852 23.4625 22.2776C23.2219 22.5631 22.775 22.5631 22.5375 22.2776C21.5344 21.0852 19.25 18.1919 19.25 16.5683C19.25 14.5968 20.9281 13 23 13C25.0719 13 26.75 14.5968 26.75 16.5683ZM27 18.9591C27.1094 18.7539 27.2094 18.5487 27.3 18.3465C27.3156 18.3109 27.3313 18.2722 27.3469 18.2365L30.9719 16.8568C31.4656 16.6694 32 17.0144 32 17.5199V25.5724C32 25.8638 31.8125 26.1255 31.5281 26.2355L27 27.9572V18.9591ZM18.3 17.1125C18.375 17.5318 18.525 17.954 18.7 18.3465C18.7906 18.5487 18.8906 18.7539 19 18.9591V26.4347L15.0281 27.9483C14.5344 28.1356 14 27.7907 14 27.2852V19.2327C14 18.9413 14.1875 18.6796 14.4719 18.5696L18.3031 17.1125H18.3ZM24.2437 22.8724C24.6781 22.355 25.3594 21.5134 26 20.5827V27.9959L20 26.3634V20.5827C20.6406 21.5134 21.3219 22.355 21.7562 22.8724C22.3969 23.6336 23.6031 23.6336 24.2437 22.8724ZM23 17.5199C23.3315 17.5199 23.6495 17.3946 23.8839 17.1715C24.1183 16.9484 24.25 16.6459 24.25 16.3304C24.25 16.015 24.1183 15.7124 23.8839 15.4894C23.6495 15.2663 23.3315 15.141 23 15.141C22.6685 15.141 22.3505 15.2663 22.1161 15.4894C21.8817 15.7124 21.75 16.015 21.75 16.3304C21.75 16.6459 21.8817 16.9484 22.1161 17.1715C22.3505 17.3946 22.6685 17.5199 23 17.5199Z" fill="black"/>
</svg>
