<svg width="45" height="45" viewBox="0 0 45 45" fill="none" xmlns="http://www.w3.org/2000/svg">
<rect x="0.5" y="0.5" width="44" height="44" rx="10.5" fill="white" stroke="#E9E9E9"/>
<path d="M34 30.3753C34 30.5079 33.8928 30.6151 33.7603 30.6151H12.2397C12.1072 30.6151 12 30.5079 12 30.3753V13.9318C12 13.7992 12.1072 13.692 12.2397 13.692H33.7603C33.8928 13.692 34 13.7992 34 13.9318V30.3753ZM19.0513 30.192L18.7692 29.4869C18.8115 29.5405 19.4321 28.9228 19.5449 28.9228L26.2972 28.9059C26.3846 28.9059 30.181 28.9792 30.2487 28.9171C32.648 29.6091 30.3333 29.3459 30.3333 29.3459C30.3333 29.3459 31.1033 29.3297 31.1795 29.3918C31.3844 29.5535 31.2378 29.6392 31.4615 29.7689C31.7116 29.9137 29.9178 28.9115 30.2487 28.9171C30.7752 28.9265 31.3412 28.9275 31.9467 28.92C32.1469 28.9171 32.3077 28.7536 32.3077 28.5533V15.6664C32.3077 15.5112 32.1808 15.3843 32.0256 15.3843H13.8869C13.7797 15.3843 13.6923 15.4718 13.6923 15.5789V28.6774C13.6923 28.8071 13.7938 28.9143 13.9151 28.9115L16.3718 28.8664C16.4536 28.8636 19.6915 28.9984 19.7564 28.9223C20.6505 29.6509 18.2672 29.3487 19.1528 29.8507C19.181 29.8677 19.3333 30.192 19.0513 30.192Z" fill="black"/>
<path d="M22.1379 22.9008C23.0555 23.7207 23.6291 24.7633 23.8585 26.0288C23.8923 26.2149 23.7513 26.3842 23.5623 26.3842H22.3861C22.2395 26.3842 22.1154 26.2742 22.0985 26.1275C22.0214 25.4073 21.7346 24.8432 21.2382 24.4352C20.8001 24.0742 20.2454 23.8918 19.5741 23.888C18.2334 23.8824 17.4136 24.6195 17.1146 26.0993C17.0864 26.2347 16.982 26.3334 16.8636 26.3334L15.5408 26.3306C15.4646 26.3306 15.4054 26.2516 15.411 26.1557C15.5088 24.8526 16.0682 23.7996 17.0892 22.9967C17.1513 22.946 17.1654 22.8585 17.1231 22.7936C15.8219 20.7817 15.9516 19.1542 17.5123 17.9113C18.2475 17.3266 19.0185 17.0577 19.8251 17.1047C20.4475 17.1385 21.0191 17.3388 21.54 17.7054C22.0214 18.042 22.3937 18.4924 22.6569 19.0565C23.2379 20.2994 23.0593 21.5122 22.121 22.6949C22.0731 22.757 22.0787 22.8472 22.1379 22.9008ZM21.2974 20.4611C21.2974 19.5331 20.5444 18.7801 19.6164 18.7801C18.6885 18.7801 17.9354 19.5331 17.9354 20.4611C17.9354 21.389 18.6885 22.1421 19.6164 22.1421C20.5444 22.1421 21.2974 21.389 21.2974 20.4611Z" fill="black"/>
<path d="M30.382 19.6111L25.7564 19.6192C25.6318 19.6194 25.5309 19.7206 25.5312 19.8452L25.5333 21.0862C25.5335 21.2109 25.6347 21.3117 25.7594 21.3115L30.385 21.3034C30.5096 21.3032 30.6105 21.202 30.6102 21.0774L30.6081 19.8363C30.6079 19.7117 30.5067 19.6109 30.382 19.6111Z" fill="black"/>
<path d="M30.3538 22.9928L25.779 23.0008C25.6419 23.001 25.531 23.1123 25.5312 23.2494L25.5333 24.4453C25.5335 24.5824 25.6448 24.6933 25.7819 24.6931L30.3568 24.6851C30.4939 24.6848 30.6048 24.5735 30.6046 24.4364L30.6025 23.2405C30.6022 23.1035 30.4909 22.9925 30.3538 22.9928Z" fill="black"/>
</svg>
