<svg width="45" height="45" viewBox="0 0 45 45" fill="none" xmlns="http://www.w3.org/2000/svg">
<rect x="0.5" y="0.5" width="44" height="44" rx="10.5" fill="white" stroke="#E9E9E9"/>
<path fill-rule="evenodd" clip-rule="evenodd" d="M14.625 21.625C14.625 21.1418 15.0168 20.75 15.5 20.75C17.8206 20.75 20.0462 21.6719 21.6872 23.3128C23.3281 24.9538 24.25 27.1794 24.25 29.5C24.25 29.9832 23.8582 30.375 23.375 30.375C22.8918 30.375 22.5 29.9832 22.5 29.5C22.5 27.6435 21.7625 25.863 20.4497 24.5503C19.137 23.2375 17.3565 22.5 15.5 22.5C15.0168 22.5 14.625 22.1082 14.625 21.625Z" fill="black"/>
<path fill-rule="evenodd" clip-rule="evenodd" d="M14.625 15.5C14.625 15.0168 15.0168 14.625 15.5 14.625C19.4451 14.625 23.2286 16.1922 26.0182 18.9818C28.8078 21.7714 30.375 25.5549 30.375 29.5C30.375 29.9832 29.9832 30.375 29.5 30.375C29.0168 30.375 28.625 29.9832 28.625 29.5C28.625 26.019 27.2422 22.6806 24.7808 20.2192C22.3194 17.7578 18.981 16.375 15.5 16.375C15.0168 16.375 14.625 15.9832 14.625 15.5Z" fill="black"/>
<path fill-rule="evenodd" clip-rule="evenodd" d="M14.625 28.625C14.625 27.6585 15.4085 26.875 16.375 26.875C17.3415 26.875 18.125 27.6585 18.125 28.625C18.125 29.5915 17.3415 30.375 16.375 30.375C15.4085 30.375 14.625 29.5915 14.625 28.625Z" fill="black"/>
</svg>
